PathFileType	4	(X/Y/Z)	S01_0007_Gait_markers.trc
DataRate	CameraRate	NumFrames	NumMarkers	Units	OrigDataRate	OrigDataStartFrame	OrigNumFrames
250.000000	250.000000	4	54	mm	250.000000	75	302
Frame#	Time	HEAD_ANT			R_HEAD			L_HEAD			C7			R_BACK			L_BACK			STERNUM			R_ACROMION			R_HUM_PROX			R_HUM_ANT			R_HUM_POST			R_ELBOW_LAT			R_ELBOW_MED			R_FOREARM			R_WIRST_LAT			R_WRITS_MED			R_HAND			L_ACROMION			L_HUM_PROX			L_HUM_ANT			L_HUM_POST			L_ELBOW_LAT			L_ELBOW_MED			L_FOREARM			L_WRIST_LAT			L_WIRST_MED			L_HAND			R_ILIAC			SACRUM			L_ILIAC			R_GTROCH			R_THIGH__1			R_THIGH_2			R_THIGH_3			R_THIGH_4			R_SHANK_1			R_SHANK_2			R_SHANK_3			R_SHANK_4			R_HEEL			R_FOOT_LAT			R_FOOT_MED			L_GTROCH			L_THIGH_1			L_THIGH_2			L_THIGH_3			L_THIGH_4			L_SHANK_1			L_SHANK_2			L_SHANK_3			L_SHANK_4			L_HEEL			L_FOOT_LAT			L_FOOT_MED			
		X1	Y1	Z1	X2	Y2	Z2	X3	Y3	Z3	X4	Y4	Z4	X5	Y5	Z5	X6	Y6	Z6	X7	Y7	Z7	X8	Y8	Z8	X9	Y9	Z9	X10	Y10	Z10	X11	Y11	Z11	X12	Y12	Z12	X13	Y13	Z13	X14	Y14	Z14	X15	Y15	Z15	X16	Y16	Z16	X17	Y17	Z17	X18	Y18	Z18	X19	Y19	Z19	X20	Y20	Z20	X21	Y21	Z21	X22	Y22	Z22	X23	Y23	Z23	X24	Y24	Z24	X25	Y25	Z25	X26	Y26	Z26	X27	Y27	Z27	X28	Y28	Z28	X29	Y29	Z29	X30	Y30	Z30	X31	Y31	Z31	X32	Y32	Z32	X33	Y33	Z33	X34	Y34	Z34	X35	Y35	Z35	X36	Y36	Z36	X37	Y37	Z37	X38	Y38	Z38	X39	Y39	Z39	X40	Y40	Z40	X41	Y41	Z41	X42	Y42	Z42	X43	Y43	Z43	X44	Y44	Z44	X45	Y45	Z45	X46	Y46	Z46	X47	Y47	Z47	X48	Y48	Z48	X49	Y49	Z49	X50	Y50	Z50	X51	Y51	Z51	X52	Y52	Z52	X53	Y53	Z53	X54	Y54	Z54	

76	0.3	619.2492065429688	1755.005615234375	-337.5775451660152	561.2108154296875	1697.33349609375	-264.3760375976559	565.3289794921875	1707.0732421875	-412.3096008300777	431.2048034667969	1529.537475585938	-346.2135925292965	360.0636901855469	1333.00537109375	-279.1747131347653	357.5139465332031	1337.03662109375	-418.6524353027341	609.0554809570312	1367.177612304688	-349.3620605468747	512.1576538085938	1478.095947265625	-175.325042724609	478.9211730957031	1317.949462890625	-83.46631622314423	537.6421508789062	1230.227172851562	-88.43165588378879	418.2725524902344	1236.484375	-65.18682098388645	465.969482421875	1127.599487304688	-66.17483520507787	424.7725524902344	1127.682006835938	-140.1265716552732	576.3812255859375	952.7513427734375	-103.8634796142576	610.373291015625	894.6331176757812	-158.0929412841795	554.1455688476562	862.3655395507812	-108.332077026367	632.5889892578125	803.7845458984375	-111.3915405273436	510.1028747558594	1488.108642578125	-514.3654174804684	479.6716613769531	1326.1884765625	-614.8716430664059	536.9088745117188	1242.239868164063	-620.4642333984373	415.1393432617188	1253.219482421875	-641.8322143554685	469.8719787597656	1146.055053710938	-656.103088378906	416.50537109375	1140.938842773438	-598.5756225585935	566.346435546875	966.6198730468751	-651.9921874999998	603.0820922851562	909.0270996093751	-607.8940429687498	549.0579223632812	881.7364501953126	-661.3374023437498	629.1480102539062	823.5565795898439	-652.0133666992185	508.5226440429688	1082.529418945312	-177.8836517333982	374.9106140136719	1054.140869140625	-342.3765869140623	492.4054260253906	1077.913818359375	-521.139953613281	459.1824340820312	928.3704223632812	-168.9211120605467	508.1636047363281	648.4862670898438	-201.2340240478514	564.2188110351562	667.042724609375	-196.7875823974608	571.7338256835938	566.9146728515625	-236.6643981933593	507.7813720703125	569.2139282226562	-225.3290405273436	489.818359375	343.3793334960938	-229.5939331054687	541.57861328125	320.2103271484376	-250.7239379882812	530.9029541015625	237.1226806640626	-271.1234436035156	468.9512634277344	246.0874176025391	-254.7992095947265	405.5921325683594	45.78304672241219	-341.4519958496094	568.521240234375	19.65863990783697	-256.7873840332031	623.937255859375	28.46823120117196	-361.3390502929688	465.8180847167969	966.1115112304689	-529.7664794921873	621.1700439453125	692.0962524414064	-532.4019165039061	564.8603515625	702.6062011718751	-547.7921142578124	570.6847534179688	596.8538208007814	-530.7819213867186	632.1702880859375	610.6898803710939	-521.5680541992186	483.4735717773438	372.4996643066407	-527.0242919921874	427.2946472167969	395.4978942871095	-527.0251464843749	368.0499267578125	332.4703979492189	-512.1767578124999	419.2030944824219	293.9044494628907	-506.8576049804687	216.9075164794922	221.2940216064454	-441.0268249511718	321.5384826660156	78.53092193603527	-506.5123901367188	357.098876953125	71.70313262939462	-413.85400390625	
77	0.304	624.7576293945312	1755.465087890625	-337.7747192382809	566.6753540039062	1697.891845703125	-264.5450744628902	570.65966796875	1707.542114257812	-412.3965148925777	436.4276428222656	1529.95263671875	-346.1561584472653	365.2076721191406	1333.880493164062	-278.6319580078122	362.6334533691406	1337.671264648438	-418.4790954589841	614.2935791015625	1367.962646484375	-349.6101989746091	517.5393676757812	1478.69482421875	-175.2550964355465	484.5323181152344	1318.454345703125	-83.40949249267548	543.2911987304688	1230.844848632812	-88.24910736083957	423.9021301269531	1236.835693359375	-65.28384399414035	471.6581115722656	1128.230834960938	-66.45955657958959	430.8851623535156	1128.1357421875	-140.5168457031247	583.0244750976562	953.8772583007812	-104.691711425781	617.2595825195312	895.8927001953125	-158.9278106689451	561.1463012695312	863.3375854492188	-109.4446182250975	639.6328125	804.9854736328125	-112.6122894287108	515.1464233398438	1488.69384765625	-514.3734741210934	484.2185974121094	1326.804443359375	-614.8923950195309	541.5491333007812	1242.697265625	-620.6041259765623	419.6439208984375	1253.749877929688	-641.6242675781248	474.0504455566406	1146.821655273438	-656.1732177734373	420.9403076171875	1141.790893554688	-598.346740722656	570.2462768554688	966.9476928710939	-652.8011474609373	606.531982421875	908.9875488281251	-607.9500732421873	553.0770263671875	882.9327392578126	-662.6596679687498	632.7447509765625	823.5649414062501	-651.433166503906	514.0325317382812	1083.10205078125	-177.9517974853513	380.2530212402344	1054.94775390625	-341.9926147460935	498.2823486328125	1078.8056640625	-520.7416992187498	463.8458557128906	928.8211669921875	-168.9764556884764	510.3744201660156	648.7359619140625	-201.1392822265624	566.634521484375	666.8325805664062	-196.6794128417967	573.2250366210938	566.5079956054688	-236.1899108886718	509.4790649414062	569.5084838867188	-225.1545562744139	490.5425720214844	343.6793518066407	-229.625518798828	542.2634887695312	320.2634887695313	-250.6591796874999	531.4072875976562	237.2271423339844	-271.0592041015624	469.4317932128906	246.4998779296876	-254.7967987060546	404.9495849609375	46.64279556274422	-340.9076232910156	568.5135498046875	19.62915611267096	-256.7688903808594	624.0883178710938	28.55796623229989	-361.3281555175781	471.517333984375	967.2570190429689	-529.673400878906	629.0385131835938	693.8729248046876	-531.9407958984374	572.5924682617188	703.9353027343751	-547.7481689453124	579.1481323242188	598.3905029296876	-530.7836303710936	640.4771728515625	613.0300903320314	-521.1217041015624	494.0959777832031	372.497772216797	-526.6285400390624	438.1890869140625	394.4276123046876	-527.0028076171874	379.4058532714844	330.577362060547	-511.5773925781249	431.4205932617188	292.9607849121095	-506.5980834960937	230.049560546875	216.4190826416016	-440.8393859863281	338.6331787109375	76.33999633789074	-506.9892578125	371.8062438964844	69.96640777587899	-413.2297058105469	
78	0.308	630.133544921875	1755.92529296875	-337.9552307128902	572.002685546875	1698.516479492188	-264.6893920898434	576.0819702148438	1707.975830078125	-412.5356445312496	441.5550537109375	1530.503662109375	-345.979095458984	370.4718933105469	1334.404663085938	-278.0461425781247	367.9049987792969	1338.304443359375	-418.1643066406247	619.4692993164062	1368.639038085938	-349.9689636230466	522.8919677734375	1479.323974609375	-175.2112884521481	490.0565490722656	1318.988891601562	-83.18476867675751	548.9638671875	1231.417846679688	-88.2430114746091	429.6446838378906	1237.3798828125	-65.2712097167966	477.5636291503906	1128.671630859375	-66.55564117431615	436.7074279785156	1128.58984375	-140.6497650146482	589.6918334960938	954.846435546875	-105.3842010498045	624.1587524414062	897.3107299804688	-159.9584197998045	568.060302734375	864.2653198242188	-110.371742248535	646.8363037109375	806.3128662109375	-113.9184036254881	520.2039794921875	1489.233154296875	-514.2677001953122	488.9068298339844	1327.473510742188	-614.8995361328122	546.0045166015625	1243.280029296875	-620.9862670898435	424.1354675292969	1254.40576171875	-641.498840332031	478.2779235839844	1147.438720703125	-656.251281738281	425.2872924804688	1142.432861328125	-598.490051269531	574.1785888671875	967.3243408203126	-653.026184082031	610.641845703125	909.1930541992189	-608.2277832031248	556.8684692382812	883.5399169921876	-663.120422363281	636.3703002929688	823.7781372070314	-651.833801269531	519.7330932617188	1083.7041015625	-177.7824249267576	385.3735961914062	1055.518188476562	-341.7457580566404	504.0734558105469	1080.003051757813	-520.3712768554685	468.6109619140625	929.1939086914062	-169.0869293212889	512.7366943359375	649.0977783203125	-200.9523925781249	569.078125	666.6974487304688	-196.3705596923827	575.0620727539062	566.1511840820312	-235.6842193603514	511.2962646484375	569.8782348632812	-224.9826202392577	491.2441101074219	343.8591003417969	-229.5877838134765	543.4158325195312	320.5244445800782	-250.0823822021484	531.8753051757812	237.4320373535157	-270.8923645019531	469.8908081054688	246.7697753906251	-254.8287353515624	405.1503601074219	46.95168304443367	-341.1852111816406	568.5515747070312	19.63365936279303	-256.8182983398438	624.303466796875	28.58757972717293	-361.1699829101562	477.2855529785156	968.3610229492189	-529.463439941406	636.789306640625	695.6400756835939	-531.5850830078124	580.2488403320312	705.4880981445314	-547.6715698242186	587.8161010742188	599.7764282226564	-530.7421874999999	648.8418579101562	614.9592895507814	-520.5761718749999	505.2529296875	372.4180603027345	-526.2793579101561	448.6520385742188	393.4776611328126	-526.6228637695311	391.1251831054688	328.5688476562501	-511.5842285156249	443.6493530273438	291.815155029297	-506.2372131347656	243.4442596435547	211.3022613525391	-440.6715698242187	355.6716918945312	74.22734832763683	-507.2126770019531	389.220703125	68.69351196289071	-413.5957641601562	
79	0.312	635.5621948242188	1756.461547851562	-338.1449279785152	577.3944091796875	1699.214721679688	-264.9028320312496	581.5855102539062	1708.309448242188	-412.7761230468746	446.7861633300781	1530.8916015625	-346.0450744628903	375.720458984375	1334.871459960938	-277.5949096679685	373.1042785644531	1338.729736328125	-418.1748046874997	624.6605834960938	1369.29931640625	-349.6349182128903	528.25537109375	1479.8125	-175.3716430664059	495.5647277832031	1319.463012695312	-83.12693786621064	554.6954956054688	1232.022094726562	-88.19029235839817	435.3042297363281	1237.835693359375	-65.43882751464817	483.6552734375	1129.042846679688	-66.67283630371068	442.9873352050781	1128.880126953125	-140.9580230712888	596.8749389648438	956.4609985351562	-106.4190139770506	630.9456176757812	898.456787109375	-160.8590087890623	575.064697265625	865.1839599609375	-111.4306869506834	654.1922607421875	807.6090698242188	-114.9533538818358	525.2306518554688	1489.699951171875	-514.2753295898434	493.5719299316406	1328.052001953125	-614.9702148437497	550.5949096679688	1243.865356445313	-621.3189697265623	429.0203857421875	1255.400512695313	-641.604064941406	482.688720703125	1147.902465820313	-656.2499389648435	429.7498779296875	1143.02880859375	-598.4378662109373	577.7052612304688	967.7648925781251	-653.269348144531	614.8250122070312	909.5544433593751	-608.7095947265623	560.7303466796875	883.8547973632814	-663.2794799804685	640.0656127929688	823.9875488281251	-652.0699462890623	525.3497314453125	1084.027587890625	-177.6240539550779	390.7175903320312	1056.033081054688	-341.4144592285154	509.5592346191406	1080.881713867188	-520.022277832031	473.2941284179688	929.6874389648438	-168.9837493896482	515.0774536132812	649.3436889648438	-200.7985076904295	571.5103149414062	666.2055053710938	-195.8935546874999	576.875	566.236328125	-235.2295074462889	513.0830688476562	570.22021484375	-224.8263397216796	492.0047302246094	344.1051025390626	-229.5713348388671	543.6521606445312	320.6091918945313	-250.4242553710937	532.3983764648438	237.6889038085938	-270.7976989746093	470.3869323730469	247.1176757812501	-254.8906097412109	405.3822937011719	47.33315658569344	-341.586669921875	568.5525512695312	19.62872123718267	-256.8717041015625	624.534912109375	28.61957550048836	-361.1063232421875	482.79345703125	969.4384765625001	-529.4831542968748	644.8123779296875	698.0687866210939	-531.2962036132811	588.1966552734375	707.3002319335939	-547.4194335937499	595.3088989257812	601.2378540039064	-530.4328002929686	657.0859985351562	616.7975463867189	-520.0676879882811	516.7523803710938	372.0596313476564	-526.3505859374999	459.2489318847656	392.1914978027345	-526.3581542968749	402.9763793945312	326.410125732422	-511.4599304199218	456.1731872558594	290.5374755859376	-505.9485168457031	256.8534545898438	206.0748443603516	-440.3757629394531	372.8883361816406	72.31379699707043	-507.2377014160156	406.5735473632812	67.35436248779305	-413.5711059570312	
